<svg xmlns="http://www.w3.org/2000/svg" viewBox="0 0 120 120" fill="none">
  <!-- Single continuous path for stroke-dashoffset draw animation -->
  <!-- Abstract "thread needle" logo: a geometric needle shape trailing a thread -->
  <path
    d="M60 8 L72 32 L60 28 L48 32 Z
       M60 28 L60 52
       M60 52 C60 58 54 64 48 64
       C42 64 38 58 38 52
       C38 46 42 40 48 40
       C54 40 58 46 60 52
       M60 52 L60 76
       M60 76 C60 82 66 88 72 88
       C78 88 82 82 82 76
       C82 70 78 64 72 64
       C66 64 60 70 60 76
       M60 76 L60 112"
    stroke="currentColor"
    stroke-width="2"
    stroke-linecap="round"
    stroke-linejoin="round"
  />
</svg>
